<svg width="1200" height="900" viewBox="0 0 1200 900" fill="none" xmlns="http://www.w3.org/2000/svg">
  <defs>
    <linearGradient id="bg" x1="0" y1="0" x2="1" y2="1">
      <stop offset="0" stop-color="#0F2043"/>
      <stop offset="1" stop-color="#1D3568"/>
    </linearGradient>
    <linearGradient id="line" x1="0" y1="0" x2="1" y2="1">
      <stop offset="0" stop-color="#C7A866" stop-opacity="0.9"/>
      <stop offset="1" stop-color="#8AC6FF" stop-opacity="0.6"/>
    </linearGradient>
  </defs>
  <rect width="1200" height="900" fill="url(#bg)"/>
  <circle cx="190" cy="150" r="170" fill="#C7A866" fill-opacity="0.15"/>
  <circle cx="970" cy="740" r="240" fill="#8AC6FF" fill-opacity="0.14"/>
  <path d="M50 760L340 420L510 560L760 240L1150 520" stroke="url(#line)" stroke-width="8"/>
  <path d="M0 620L280 390L470 520L720 220L1100 470" stroke="#F7F3EA" stroke-opacity="0.25" stroke-width="2"/>
  <g opacity="0.4">
    <rect x="120" y="470" width="70" height="250" fill="#F7F3EA" fill-opacity="0.25"/>
    <rect x="230" y="390" width="70" height="330" fill="#F7F3EA" fill-opacity="0.2"/>
    <rect x="340" y="320" width="70" height="400" fill="#F7F3EA" fill-opacity="0.2"/>
    <rect x="450" y="440" width="70" height="280" fill="#F7F3EA" fill-opacity="0.2"/>
    <rect x="560" y="280" width="70" height="440" fill="#F7F3EA" fill-opacity="0.2"/>
    <rect x="670" y="360" width="70" height="360" fill="#F7F3EA" fill-opacity="0.2"/>
    <rect x="780" y="250" width="70" height="470" fill="#F7F3EA" fill-opacity="0.2"/>
    <rect x="890" y="450" width="70" height="270" fill="#F7F3EA" fill-opacity="0.2"/>
  </g>
</svg>
